<?xml version="1.0" encoding="UTF-8"?>
<svg xmlns="http://www.w3.org/2000/svg" width="1600" height="900" viewBox="0 0 1600 900" role="img" aria-labelledby="title desc">
  <title>Visuel data — Talend & Power BI</title>
  <desc>Illustration abstraite sombre avec pipeline de données, cylindre base de données, flux et histogramme, couleurs indigo et vert.</desc>
  <defs>
    <linearGradient id="g" x1="0" y1="0" x2="1" y2="1">
      <stop offset="0%" stop-color="#4f46e5"/>
      <stop offset="100%" stop-color="#22c55e"/>
    </linearGradient>
    <linearGradient id="g2" x1="0" y1="1" x2="1" y2="0">
      <stop offset="0%" stop-color="#4f46e5" stop-opacity="0.6"/>
      <stop offset="100%" stop-color="#22c55e" stop-opacity="0.6"/>
    </linearGradient>
  </defs>
  <rect width="1600" height="900" fill="#0b1020"/>
  <g stroke="#1f2a44" stroke-width="1" opacity="0.35">
    <g>
      <line x1="0" y1="0" x2="0" y2="900"/><line x1="100" y1="0" x2="100" y2="900"/><line x1="200" y1="0" x2="200" y2="900"/>
      <line x1="300" y1="0" x2="300" y2="900"/><line x1="400" y1="0" x2="400" y2="900"/><line x1="500" y1="0" x2="500" y2="900"/>
      <line x1="600" y1="0" x2="600" y2="900"/><line x1="700" y1="0" x2="700" y2="900"/><line x1="800" y1="0" x2="800" y2="900"/>
      <line x1="900" y1="0" x2="900" y2="900"/><line x1="1000" y1="0" x2="1000" y2="900"/><line x1="1100" y1="0" x2="1100" y2="900"/>
      <line x1="1200" y1="0" x2="1200" y2="900"/><line x1="1300" y1="0" x2="1300" y2="900"/><line x1="1400" y1="0" x2="1400" y2="900"/>
      <line x1="1500" y1="0" x2="1500" y2="900"/><line x1="1600" y1="0" x2="1600" y2="900"/>
    </g>
    <g>
      <line x1="0" y1="0" x2="1600" y2="0"/><line x1="0" y1="100" x2="1600" y2="100"/><line x1="0" y1="200" x2="1600" y2="200"/>
      <line x1="0" y1="300" x2="1600" y2="300"/><line x1="0" y1="400" x2="1600" y2="400"/><line x1="0" y1="500" x2="1600" y2="500"/>
      <line x1="0" y1="600" x2="1600" y2="600"/><line x1="0" y1="700" x2="1600" y2="700"/><line x1="0" y1="800" x2="1600" y2="800"/>
      <line x1="0" y1="900" x2="1600" y2="900"/>
    </g>
  </g>
  <path d="M-50,680 C400,540 1200,760 1650,620 L1650,900 L-50,900 Z" fill="url(#g2)" opacity="0.25"/>
  <g transform="translate(190,380)">
    <ellipse cx="0" cy="-70" rx="80" ry="22" fill="url(#g)" opacity="0.75"/>
    <rect x="-80" y="-70" width="160" height="140" fill="none" stroke="url(#g)" stroke-width="3" rx="16"/>
    <ellipse cx="0" cy="70" rx="80" ry="22" fill="none" stroke="url(#g)" stroke-width="3"/>
  </g>
  <g stroke="url(#g)" stroke-width="3" fill="none">
    <path d="M270,380 C520,300 780,380 1000,320" opacity="0.7"/>
    <path d="M270,420 C560,520 900,520 1220,460" opacity="0.45"/>
    <path d="M270,460 C600,360 950,420 1280,380" opacity="0.3"/>
  </g>
  <g fill="url(#g)">
    <circle cx="270" cy="380" r="8"/>
    <circle cx="520" cy="330" r="7"/>
    <circle cx="820" cy="360" r="7"/>
    <circle cx="1000" cy="320" r="9"/>
    <circle cx="1220" cy="460" r="9"/>
    <circle cx="1280" cy="380" r="9"/>
  </g>
  <g transform="translate(700,220)">
    <rect x="-140" y="-60" width="280" height="140" rx="16" fill="#121933" stroke="#1f2a44"/>
    <polyline points="-120,40 -80,10 -40,18 0,-10 40,0 80,-20 120,10" fill="none" stroke="url(#g)" stroke-width="4"/>
  </g>
  <g transform="translate(1320,420)">
    <rect x="-100" y="-120" width="48" height="140" rx="10" fill="url(#g)"/>
    <rect x="-40" y="-160" width="48" height="180" rx="10" fill="url(#g)"/>
    <rect x="20" y="-200" width="48" height="220" rx="10" fill="url(#g)"/>
    <rect x="80" y="-240" width="48" height="260" rx="10" fill="url(#g)"/>
  </g>
  <g fill="#22c55e" opacity="0.7">
    <circle cx="360" cy="220" r="3"/>
    <circle cx="980" cy="540" r="3"/>
    <circle cx="1220" cy="240" r="3"/>
  </g>
</svg>
