<?xml version="1.0" encoding="UTF-8"?>
<svg xmlns="http://www.w3.org/2000/svg" width="1200" height="630" viewBox="0 0 1200 630" role="img" aria-labelledby="title desc">
  <title>OG Image — Freelance Talend & Power BI</title>
  <desc>Visuel Open Graph sombre, pipeline de données et histogramme, avec titre.</desc>
  <defs>
    <linearGradient id="g" x1="0" y1="0" x2="1" y2="1">
      <stop offset="0%" stop-color="#4f46e5"/>
      <stop offset="100%" stop-color="#22c55e"/>
    </linearGradient>
  </defs>
  <rect width="1200" height="630" fill="#0b1020"/>
  <g stroke="#1f2a44" stroke-width="1" opacity="0.35">
    <g>
      <line x1="0" y1="0" x2="0" y2="630"/><line x1="100" y1="0" x2="100" y2="630"/><line x1="200" y1="0" x2="200" y2="630"/>
      <line x1="300" y1="0" x2="300" y2="630"/><line x1="400" y1="0" x2="400" y2="630"/><line x1="500" y1="0" x2="500" y2="630"/>
      <line x1="600" y1="0" x2="600" y2="630"/><line x1="700" y1="0" x2="700" y2="630"/><line x1="800" y1="0" x2="800" y2="630"/>
      <line x1="900" y1="0" x2="900" y2="630"/><line x1="1000" y1="0" x2="1000" y2="630"/><line x1="1100" y1="0" x2="1100" y2="630"/>
      <line x1="1200" y1="0" x2="1200" y2="630"/>
    </g>
    <g>
      <line x1="0" y1="0" x2="1200" y2="0"/><line x1="0" y1="90" x2="1200" y2="90"/><line x1="0" y1="180" x2="1200" y2="180"/>
      <line x1="0" y1="270" x2="1200" y2="270"/><line x1="0" y1="360" x2="1200" y2="360"/><line x1="0" y1="450" x2="1200" y2="450"/>
      <line x1="0" y1="540" x2="1200" y2="540"/><line x1="0" y1="630" x2="1200" y2="630"/>
    </g>
  </g>
  <path d="M60,420 C280,340 620,420 960,360" fill="none" stroke="url(#g)" stroke-width="4" opacity="0.7"/>
  <circle cx="60" cy="420" r="7" fill="url(#g)"/>
  <circle cx="360" cy="360" r="6" fill="url(#g)"/>
  <circle cx="660" cy="380" r="6" fill="url(#g)"/>
  <circle cx="960" cy="360" r="8" fill="url(#g)"/>
  <g transform="translate(1030,470)">
    <rect x="-90" y="-120" width="36" height="130" rx="8" fill="url(#g)"/>
    <rect x="-40" y="-160" width="36" height="170" rx="8" fill="url(#g)"/>
    <rect x="10" y="-200" width="36" height="210" rx="8" fill="url(#g)"/>
  </g>
  <g font-family="system-ui, -apple-system, Segoe UI, Roboto, Arial" fill="#e6e8ee">
    <text x="60" y="240" font-size="48" font-weight="700">Freelance Talend &amp; Power BI</text>
    <text x="60" y="290" font-size="24" fill="#9aa3b2">Pipelines ETL fiables • Dashboards performants</text>
    <text x="60" y="340" font-size="20" fill="#9aa3b2">DataOps • DAX • Orchestration • Monitoring</text>
  </g>
  <circle cx="26" cy="214" r="8" fill="url(#g)"/>
</svg>
